<mxfile host="app.diagrams.net" modified="2021-01-29T08:24:07.690Z" agent="5.0 (Windows NT 10.0; Win64; x64) AppleWebKit/537.36 (KHTML, like Gecko) Chrome/87.0.4280.141 Safari/537.36" etag="KNp0Y4Nu6vGO8X7y_1ps" version="14.2.7" type="github">
  <diagram id="cgUr09Xqpb1lFKW807KI" name="Page-1">
    <mxGraphModel dx="1088" dy="1732" grid="1" gridSize="10" guides="1" tooltips="1" connect="1" arrows="1" fold="1" page="1" pageScale="1" pageWidth="850" pageHeight="1100" math="0" shadow="0">
      <root>
        <mxCell id="0" />
        <mxCell id="1" parent="0" />
        <mxCell id="PLKDB188a2l5lJHVr24N-1" value="" style="ellipse;whiteSpace=wrap;html=1;" vertex="1" parent="1">
          <mxGeometry x="251" y="975" width="60" height="10" as="geometry" />
        </mxCell>
        <mxCell id="PLKDB188a2l5lJHVr24N-2" value="" style="ellipse;whiteSpace=wrap;html=1;" vertex="1" parent="1">
          <mxGeometry x="449" y="975" width="60" height="10" as="geometry" />
        </mxCell>
        <mxCell id="PLKDB188a2l5lJHVr24N-6" value="" style="ellipse;whiteSpace=wrap;html=1;" vertex="1" parent="1">
          <mxGeometry x="731.5" y="942" width="79" height="10" as="geometry" />
        </mxCell>
        <mxCell id="PLKDB188a2l5lJHVr24N-7" value="" style="ellipse;whiteSpace=wrap;html=1;rotation=-90;" vertex="1" parent="1">
          <mxGeometry x="696" y="890" width="36.5" height="10" as="geometry" />
        </mxCell>
        <mxCell id="PLKDB188a2l5lJHVr24N-10" style="rounded=0;orthogonalLoop=1;jettySize=auto;html=1;shape=link;strokeColor=#0000FF;" edge="1" parent="1" source="PLKDB188a2l5lJHVr24N-61" target="PLKDB188a2l5lJHVr24N-58">
          <mxGeometry relative="1" as="geometry" />
        </mxCell>
        <mxCell id="PLKDB188a2l5lJHVr24N-11" style="rounded=0;orthogonalLoop=1;jettySize=auto;html=1;exitX=1;exitY=0;exitDx=0;exitDy=0;exitPerimeter=0;entryX=0;entryY=0.98;entryDx=0;entryDy=0;entryPerimeter=0;shape=link;strokeColor=#0000FF;" edge="1" parent="1" source="PLKDB188a2l5lJHVr24N-13" target="PLKDB188a2l5lJHVr24N-76">
          <mxGeometry relative="1" as="geometry" />
        </mxCell>
        <mxCell id="PLKDB188a2l5lJHVr24N-12" style="edgeStyle=orthogonalEdgeStyle;rounded=0;orthogonalLoop=1;jettySize=auto;html=1;exitX=0.5;exitY=1;exitDx=0;exitDy=0;exitPerimeter=0;fillColor=#60a917;strokeColor=#2D7600;shape=link;entryX=0;entryY=0.5;entryDx=0;entryDy=0;entryPerimeter=0;" edge="1" parent="1" source="PLKDB188a2l5lJHVr24N-13" target="PLKDB188a2l5lJHVr24N-40">
          <mxGeometry relative="1" as="geometry">
            <mxPoint x="320.5" y="1085" as="targetPoint" />
            <Array as="points">
              <mxPoint x="262.5" y="1085" />
              <mxPoint x="349.5" y="1085" />
            </Array>
          </mxGeometry>
        </mxCell>
        <mxCell id="PLKDB188a2l5lJHVr24N-13" value="" style="shape=mxgraph.cisco.servers.standard_host;html=1;pointerEvents=1;dashed=0;fillColor=#036897;strokeColor=#ffffff;strokeWidth=2;verticalLabelPosition=bottom;verticalAlign=top;align=center;outlineConnect=0;" vertex="1" parent="1">
          <mxGeometry x="241" y="995" width="43" height="62" as="geometry" />
        </mxCell>
        <mxCell id="PLKDB188a2l5lJHVr24N-14" style="rounded=0;orthogonalLoop=1;jettySize=auto;html=1;exitX=0.17;exitY=0.07;exitDx=0;exitDy=0;exitPerimeter=0;shape=link;strokeColor=#0000FF;entryX=0.5;entryY=0.98;entryDx=0;entryDy=0;entryPerimeter=0;" edge="1" parent="1" source="PLKDB188a2l5lJHVr24N-62" target="PLKDB188a2l5lJHVr24N-58">
          <mxGeometry relative="1" as="geometry" />
        </mxCell>
        <mxCell id="PLKDB188a2l5lJHVr24N-15" style="edgeStyle=orthogonalEdgeStyle;shape=link;rounded=0;orthogonalLoop=1;jettySize=auto;html=1;exitX=0.5;exitY=0;exitDx=0;exitDy=0;exitPerimeter=0;entryX=0.5;entryY=0.98;entryDx=0;entryDy=0;entryPerimeter=0;strokeColor=#0000FF;" edge="1" parent="1" target="PLKDB188a2l5lJHVr24N-76">
          <mxGeometry relative="1" as="geometry">
            <mxPoint x="500.5" y="575" as="sourcePoint" />
          </mxGeometry>
        </mxCell>
        <mxCell id="PLKDB188a2l5lJHVr24N-16" style="edgeStyle=orthogonalEdgeStyle;rounded=0;orthogonalLoop=1;jettySize=auto;html=1;entryX=1;entryY=0;entryDx=0;entryDy=0;entryPerimeter=0;fillColor=#60a917;strokeColor=#2D7600;shape=link;" edge="1" parent="1" source="PLKDB188a2l5lJHVr24N-17" target="PLKDB188a2l5lJHVr24N-40">
          <mxGeometry relative="1" as="geometry">
            <Array as="points">
              <mxPoint x="500.5" y="1085" />
            </Array>
          </mxGeometry>
        </mxCell>
        <mxCell id="PLKDB188a2l5lJHVr24N-17" value="" style="shape=mxgraph.cisco.servers.standard_host;html=1;pointerEvents=1;dashed=0;fillColor=#036897;strokeColor=#ffffff;strokeWidth=2;verticalLabelPosition=bottom;verticalAlign=top;align=center;outlineConnect=0;" vertex="1" parent="1">
          <mxGeometry x="481" y="995" width="43" height="62" as="geometry" />
        </mxCell>
        <mxCell id="PLKDB188a2l5lJHVr24N-19" style="shape=link;rounded=0;orthogonalLoop=1;jettySize=auto;html=1;exitX=1;exitY=0;exitDx=0;exitDy=0;exitPerimeter=0;entryX=0;entryY=1;entryDx=0;entryDy=0;entryPerimeter=0;strokeColor=#FF0000;" edge="1" parent="1" source="PLKDB188a2l5lJHVr24N-58" target="PLKDB188a2l5lJHVr24N-83">
          <mxGeometry relative="1" as="geometry" />
        </mxCell>
        <mxCell id="PLKDB188a2l5lJHVr24N-20" style="edgeStyle=orthogonalEdgeStyle;shape=link;rounded=0;orthogonalLoop=1;jettySize=auto;html=1;strokeColor=#00FF00;" edge="1" parent="1" source="PLKDB188a2l5lJHVr24N-58" target="PLKDB188a2l5lJHVr24N-76">
          <mxGeometry relative="1" as="geometry">
            <Array as="points" />
          </mxGeometry>
        </mxCell>
        <mxCell id="PLKDB188a2l5lJHVr24N-21" style="edgeStyle=orthogonalEdgeStyle;shape=link;rounded=0;orthogonalLoop=1;jettySize=auto;html=1;strokeColor=#FF0000;exitX=0.5;exitY=0;exitDx=0;exitDy=0;exitPerimeter=0;" edge="1" parent="1" source="PLKDB188a2l5lJHVr24N-76" target="PLKDB188a2l5lJHVr24N-83">
          <mxGeometry relative="1" as="geometry">
            <mxPoint x="502" y="670" as="sourcePoint" />
          </mxGeometry>
        </mxCell>
        <mxCell id="PLKDB188a2l5lJHVr24N-22" style="shape=link;rounded=0;orthogonalLoop=1;jettySize=auto;html=1;exitX=0.16;exitY=0.23;exitDx=0;exitDy=0;exitPerimeter=0;entryX=0.95;entryY=0.94;entryDx=0;entryDy=0;entryPerimeter=0;strokeColor=#FF0000;" edge="1" parent="1" source="PLKDB188a2l5lJHVr24N-76" target="PLKDB188a2l5lJHVr24N-81">
          <mxGeometry relative="1" as="geometry" />
        </mxCell>
        <mxCell id="PLKDB188a2l5lJHVr24N-23" style="edgeStyle=orthogonalEdgeStyle;rounded=0;orthogonalLoop=1;jettySize=auto;html=1;entryX=0.98;entryY=0.5;entryDx=0;entryDy=0;entryPerimeter=0;strokeColor=#FF8000;shape=link;" edge="1" parent="1" source="PLKDB188a2l5lJHVr24N-25" target="PLKDB188a2l5lJHVr24N-76">
          <mxGeometry relative="1" as="geometry" />
        </mxCell>
        <mxCell id="PLKDB188a2l5lJHVr24N-24" style="edgeStyle=orthogonalEdgeStyle;rounded=0;orthogonalLoop=1;jettySize=auto;html=1;entryX=0.98;entryY=0.5;entryDx=0;entryDy=0;entryPerimeter=0;strokeColor=#FF8000;shape=link;" edge="1" parent="1" source="PLKDB188a2l5lJHVr24N-26" target="PLKDB188a2l5lJHVr24N-58">
          <mxGeometry relative="1" as="geometry">
            <Array as="points">
              <mxPoint x="797" y="910" />
              <mxPoint x="330" y="910" />
              <mxPoint x="330" y="565" />
            </Array>
          </mxGeometry>
        </mxCell>
        <mxCell id="PLKDB188a2l5lJHVr24N-25" value="" style="shape=mxgraph.cisco.security.firewall;html=1;pointerEvents=1;dashed=0;fillColor=#036897;strokeColor=#ffffff;strokeWidth=2;verticalLabelPosition=bottom;verticalAlign=top;align=center;outlineConnect=0;" vertex="1" parent="1">
          <mxGeometry x="732.5" y="855" width="29" height="67" as="geometry" />
        </mxCell>
        <mxCell id="PLKDB188a2l5lJHVr24N-26" value="" style="shape=mxgraph.cisco.security.firewall;html=1;pointerEvents=1;dashed=0;fillColor=#036897;strokeColor=#ffffff;strokeWidth=2;verticalLabelPosition=bottom;verticalAlign=top;align=center;outlineConnect=0;" vertex="1" parent="1">
          <mxGeometry x="782.5" y="855" width="29" height="67" as="geometry" />
        </mxCell>
        <mxCell id="PLKDB188a2l5lJHVr24N-27" style="edgeStyle=orthogonalEdgeStyle;shape=link;rounded=0;orthogonalLoop=1;jettySize=auto;html=1;exitX=0.5;exitY=0;exitDx=0;exitDy=0;exitPerimeter=0;entryX=0.5;entryY=1;entryDx=0;entryDy=0;entryPerimeter=0;strokeColor=#B3B3B3;" edge="1" parent="1" source="PLKDB188a2l5lJHVr24N-81" target="PLKDB188a2l5lJHVr24N-48">
          <mxGeometry relative="1" as="geometry" />
        </mxCell>
        <mxCell id="PLKDB188a2l5lJHVr24N-28" style="edgeStyle=orthogonalEdgeStyle;shape=link;rounded=0;orthogonalLoop=1;jettySize=auto;html=1;exitX=0.5;exitY=0;exitDx=0;exitDy=0;exitPerimeter=0;entryX=0.5;entryY=1;entryDx=0;entryDy=0;entryPerimeter=0;strokeColor=#B3B3B3;" edge="1" parent="1" source="PLKDB188a2l5lJHVr24N-83" target="PLKDB188a2l5lJHVr24N-51">
          <mxGeometry relative="1" as="geometry" />
        </mxCell>
        <mxCell id="PLKDB188a2l5lJHVr24N-29" value="v4bf33-lsw01" style="text;html=1;align=center;verticalAlign=middle;resizable=0;points=[];autosize=1;" vertex="1" parent="1">
          <mxGeometry x="183" y="550" width="90" height="20" as="geometry" />
        </mxCell>
        <mxCell id="PLKDB188a2l5lJHVr24N-30" value="v4bf33-lsw02" style="text;html=1;align=center;verticalAlign=middle;resizable=0;points=[];autosize=1;" vertex="1" parent="1">
          <mxGeometry x="547.5" y="550" width="90" height="20" as="geometry" />
        </mxCell>
        <mxCell id="PLKDB188a2l5lJHVr24N-31" value="Aggregation_SW2" style="text;html=1;align=center;verticalAlign=middle;resizable=0;points=[];autosize=1;" vertex="1" parent="1">
          <mxGeometry x="118.5" y="332" width="110" height="20" as="geometry" />
        </mxCell>
        <mxCell id="PLKDB188a2l5lJHVr24N-33" value="Control Node" style="text;html=1;align=center;verticalAlign=middle;resizable=0;points=[];autosize=1;" vertex="1" parent="1">
          <mxGeometry x="145.5" y="1005" width="90" height="20" as="geometry" />
        </mxCell>
        <mxCell id="PLKDB188a2l5lJHVr24N-34" value="SRX cluster" style="text;html=1;align=center;verticalAlign=middle;resizable=0;points=[];autosize=1;" vertex="1" parent="1">
          <mxGeometry x="736.5" y="835" width="80" height="20" as="geometry" />
        </mxCell>
        <mxCell id="PLKDB188a2l5lJHVr24N-35" value="VPC peer link" style="text;html=1;align=center;verticalAlign=middle;resizable=0;points=[];autosize=1;" vertex="1" parent="1">
          <mxGeometry x="358.5" y="545" width="90" height="20" as="geometry" />
        </mxCell>
        <mxCell id="PLKDB188a2l5lJHVr24N-37" value="&lt;font style=&quot;font-size: 10px&quot;&gt;&lt;font style=&quot;font-size: 10px&quot;&gt;&lt;font face=&quot;calibri, sans-serif&quot; style=&quot;color: rgb(0 , 0 , 255) ; font-size: 10px&quot;&gt;&lt;span style=&quot;text-transform: uppercase&quot;&gt;CTRL_PXE_VLAN&lt;br&gt;ctrl_mgmt_vlan, ctrl_pub_api_vlan,&lt;/span&gt;&lt;/font&gt;&lt;br&gt;&lt;font face=&quot;calibri, sans-serif&quot; style=&quot;color: rgb(0 , 0 , 255) ; font-size: 10px&quot;&gt;&lt;span style=&quot;text-transform: uppercase&quot;&gt;ctrl_sto_acc_vlan, CTRL_ext_mgmt_vlan,&lt;br&gt;CTRL_INFRA_OUT_VLAN,&lt;/span&gt;&lt;/font&gt;&lt;br&gt;&lt;font face=&quot;calibri, sans-serif&quot; style=&quot;font-size: 10px&quot; color=&quot;#ff0000&quot;&gt;&lt;span style=&quot;text-transform: uppercase&quot;&gt;EXT_MGMT_OUT_VLAN,&lt;br&gt;EXT_PUB_API_VLAN, INFRA_OUT_VLAN&lt;/span&gt;&lt;/font&gt;&lt;/font&gt;&lt;/font&gt;&lt;font style=&quot;font-size: 10px&quot; color=&quot;#0000ff&quot;&gt;&lt;br&gt;&lt;/font&gt;" style="whiteSpace=wrap;html=1;strokeColor=#FF8000;" vertex="1" parent="1">
          <mxGeometry x="580.5" y="830" width="110" height="130" as="geometry" />
        </mxCell>
        <mxCell id="PLKDB188a2l5lJHVr24N-38" value="&lt;span style=&quot;color: rgb(255 , 0 , 0) ; font-family: &amp;#34;calibri&amp;#34; , sans-serif ; font-size: 10px ; text-transform: uppercase&quot;&gt;EXT_MGMT_OUT_VLAN,&lt;/span&gt;&lt;br style=&quot;color: rgb(255 , 0 , 0) ; font-family: &amp;#34;calibri&amp;#34; , sans-serif ; font-size: 10px ; text-transform: uppercase&quot;&gt;&lt;span style=&quot;color: rgb(255 , 0 , 0) ; font-family: &amp;#34;calibri&amp;#34; , sans-serif ; font-size: 10px ; text-transform: uppercase&quot;&gt;EXT_PUB_API_VLAN,&lt;br&gt;INFRA_OUT_VLAN&lt;/span&gt;&lt;font style=&quot;font-size: 10px&quot; color=&quot;#0000ff&quot;&gt;&lt;br&gt;&lt;/font&gt;" style="whiteSpace=wrap;html=1;strokeColor=#FF0000;" vertex="1" parent="1">
          <mxGeometry x="428.5" y="460" width="105" height="50" as="geometry" />
        </mxCell>
        <mxCell id="PLKDB188a2l5lJHVr24N-41" value="OOB SW" style="text;html=1;align=center;verticalAlign=middle;resizable=0;points=[];autosize=1;" vertex="1" parent="1">
          <mxGeometry x="354.5" y="1057" width="60" height="20" as="geometry" />
        </mxCell>
        <mxCell id="PLKDB188a2l5lJHVr24N-42" value="IPMI" style="text;html=1;align=center;verticalAlign=middle;resizable=0;points=[];autosize=1;" vertex="1" parent="1">
          <mxGeometry x="223.5" y="1057" width="40" height="20" as="geometry" />
        </mxCell>
        <mxCell id="PLKDB188a2l5lJHVr24N-43" value="IPMI" style="text;html=1;align=center;verticalAlign=middle;resizable=0;points=[];autosize=1;" vertex="1" parent="1">
          <mxGeometry x="463.5" y="1057" width="40" height="20" as="geometry" />
        </mxCell>
        <mxCell id="PLKDB188a2l5lJHVr24N-44" value="IPMI" style="text;html=1;align=center;verticalAlign=middle;resizable=0;points=[];autosize=1;" vertex="1" parent="1">
          <mxGeometry x="741.5" y="922" width="40" height="20" as="geometry" />
        </mxCell>
        <mxCell id="PLKDB188a2l5lJHVr24N-45" value="&lt;span style=&quot;color: rgba(0 , 0 , 0 , 0) ; font-family: monospace ; font-size: 0px&quot;&gt;%3CmxGraphModel%3E%3Croot%3E%3CmxCell%20id%3D%220%22%2F%3E%3CmxCell%20id%3D%221%22%20parent%3D%220%22%2F%3E%3CmxCell%20id%3D%222%22%20value%3D%2210.7.10.3%2F24%22%20style%3D%22text%3Bhtml%3D1%3Balign%3Dcenter%3BverticalAlign%3Dmiddle%3Bresizable%3D0%3Bpoints%3D%5B%5D%3Bautosize%3D1%3B%22%20vertex%3D%221%22%20parent%3D%221%22%3E%3CmxGeometry%20x%3D%22199.5%22%20y%3D%22540%22%20width%3D%2280%22%20height%3D%2220%22%20as%3D%22geometry%22%2F%3E%3C%2FmxCell%3E%3C%2Froot%3E%3C%2FmxGraphModel%3E&lt;/span&gt;" style="text;html=1;align=center;verticalAlign=middle;resizable=0;points=[];autosize=1;" vertex="1" parent="1">
          <mxGeometry x="378.5" y="560" width="20" height="20" as="geometry" />
        </mxCell>
        <mxCell id="PLKDB188a2l5lJHVr24N-46" style="edgeStyle=none;shape=link;rounded=0;orthogonalLoop=1;jettySize=auto;html=1;entryX=0.5;entryY=1;entryDx=0;entryDy=0;entryPerimeter=0;fontColor=#E6E6E6;strokeColor=#B3B3B3;" edge="1" parent="1" source="PLKDB188a2l5lJHVr24N-48" target="PLKDB188a2l5lJHVr24N-88">
          <mxGeometry relative="1" as="geometry" />
        </mxCell>
        <mxCell id="PLKDB188a2l5lJHVr24N-47" style="edgeStyle=none;shape=link;rounded=0;orthogonalLoop=1;jettySize=auto;html=1;shadow=0;strokeColor=#B3B3B3;fontSize=10;fontColor=#E6E6E6;" edge="1" parent="1" source="PLKDB188a2l5lJHVr24N-48">
          <mxGeometry relative="1" as="geometry">
            <mxPoint x="260.5" y="70" as="targetPoint" />
          </mxGeometry>
        </mxCell>
        <mxCell id="PLKDB188a2l5lJHVr24N-48" value="" style="shape=mxgraph.cisco.routers.atm_router;html=1;pointerEvents=1;dashed=0;fillColor=#036897;strokeColor=#ffffff;strokeWidth=2;verticalLabelPosition=bottom;verticalAlign=top;align=center;outlineConnect=0;" vertex="1" parent="1">
          <mxGeometry x="221.5" y="233.5" width="78" height="53" as="geometry" />
        </mxCell>
        <mxCell id="PLKDB188a2l5lJHVr24N-49" style="edgeStyle=none;shape=link;rounded=0;orthogonalLoop=1;jettySize=auto;html=1;entryX=0.5;entryY=1;entryDx=0;entryDy=0;entryPerimeter=0;fontColor=#E6E6E6;strokeColor=#B3B3B3;" edge="1" parent="1" source="PLKDB188a2l5lJHVr24N-51" target="PLKDB188a2l5lJHVr24N-86">
          <mxGeometry relative="1" as="geometry" />
        </mxCell>
        <mxCell id="PLKDB188a2l5lJHVr24N-50" style="edgeStyle=none;shape=link;rounded=0;orthogonalLoop=1;jettySize=auto;html=1;entryX=0.5;entryY=1;entryDx=0;entryDy=0;entryPerimeter=0;shadow=0;strokeColor=#B3B3B3;fontSize=10;fontColor=#E6E6E6;" edge="1" parent="1" source="PLKDB188a2l5lJHVr24N-51" target="PLKDB188a2l5lJHVr24N-88">
          <mxGeometry relative="1" as="geometry" />
        </mxCell>
        <mxCell id="PLKDB188a2l5lJHVr24N-51" value="" style="shape=mxgraph.cisco.routers.atm_router;html=1;pointerEvents=1;dashed=0;fillColor=#036897;strokeColor=#ffffff;strokeWidth=2;verticalLabelPosition=bottom;verticalAlign=top;align=center;outlineConnect=0;" vertex="1" parent="1">
          <mxGeometry x="461.5" y="233.5" width="78" height="53" as="geometry" />
        </mxCell>
        <mxCell id="PLKDB188a2l5lJHVr24N-52" value="VPLS PE router2" style="text;html=1;align=center;verticalAlign=middle;resizable=0;points=[];autosize=1;" vertex="1" parent="1">
          <mxGeometry x="118.5" y="270" width="110" height="20" as="geometry" />
        </mxCell>
        <mxCell id="PLKDB188a2l5lJHVr24N-54" style="edgeStyle=orthogonalEdgeStyle;shape=link;rounded=0;orthogonalLoop=1;jettySize=auto;html=1;strokeColor=#FF0000;" edge="1" parent="1" source="PLKDB188a2l5lJHVr24N-76">
          <mxGeometry relative="1" as="geometry">
            <mxPoint x="500.5" y="550" as="sourcePoint" />
            <mxPoint x="500.52857142857147" y="550" as="targetPoint" />
          </mxGeometry>
        </mxCell>
        <mxCell id="PLKDB188a2l5lJHVr24N-55" style="shape=link;rounded=0;orthogonalLoop=1;jettySize=auto;html=1;exitX=0.5;exitY=0;exitDx=0;exitDy=0;exitPerimeter=0;entryX=0.5;entryY=0.98;entryDx=0;entryDy=0;entryPerimeter=0;strokeColor=#0000FF;" edge="1" parent="1" source="PLKDB188a2l5lJHVr24N-77" target="PLKDB188a2l5lJHVr24N-76">
          <mxGeometry relative="1" as="geometry">
            <mxPoint x="502" y="940" as="sourcePoint" />
            <mxPoint x="502" y="779.4" as="targetPoint" />
          </mxGeometry>
        </mxCell>
        <mxCell id="PLKDB188a2l5lJHVr24N-56" value="vPC member ports" style="rounded=0;whiteSpace=wrap;html=1;fillColor=#ffff88;strokeColor=#36393d;" vertex="1" parent="1">
          <mxGeometry x="98.5" y="610" width="110" height="20" as="geometry" />
        </mxCell>
        <mxCell id="PLKDB188a2l5lJHVr24N-57" value="" style="endArrow=classic;startArrow=classic;html=1;entryX=1;entryY=1;entryDx=0;entryDy=0;" edge="1" parent="1" target="PLKDB188a2l5lJHVr24N-56">
          <mxGeometry width="50" height="50" relative="1" as="geometry">
            <mxPoint x="250" y="590" as="sourcePoint" />
            <mxPoint x="192" y="720" as="targetPoint" />
          </mxGeometry>
        </mxCell>
        <mxCell id="PLKDB188a2l5lJHVr24N-58" value="" style="shape=mxgraph.cisco.switches.workgroup_switch;html=1;pointerEvents=1;dashed=0;fillColor=#036897;strokeColor=#ffffff;strokeWidth=2;verticalLabelPosition=bottom;verticalAlign=top;align=center;outlineConnect=0;" vertex="1" parent="1">
          <mxGeometry x="263" y="550" width="80" height="30" as="geometry" />
        </mxCell>
        <mxCell id="PLKDB188a2l5lJHVr24N-66" value="" style="whiteSpace=wrap;html=1;fillColor=#ffff88;strokeColor=#36393d;" vertex="1" parent="1">
          <mxGeometry x="323" y="580" width="20" height="10" as="geometry" />
        </mxCell>
        <mxCell id="PLKDB188a2l5lJHVr24N-67" style="edgeStyle=orthogonalEdgeStyle;rounded=0;orthogonalLoop=1;jettySize=auto;html=1;fillColor=#fa6800;strokeColor=#C73500;shape=link;exitX=0.5;exitY=1;exitDx=0;exitDy=0;exitPerimeter=0;entryX=1;entryY=0.5;entryDx=0;entryDy=0;entryPerimeter=0;" edge="1" parent="1" source="PLKDB188a2l5lJHVr24N-26" target="PLKDB188a2l5lJHVr24N-40">
          <mxGeometry relative="1" as="geometry">
            <Array as="points">
              <mxPoint x="796.5" y="1115" />
              <mxPoint x="410.5" y="1115" />
              <mxPoint x="410.5" y="1090" />
            </Array>
            <mxPoint x="761.5" y="1034" as="sourcePoint" />
            <mxPoint x="681.5" y="1077" as="targetPoint" />
          </mxGeometry>
        </mxCell>
        <mxCell id="PLKDB188a2l5lJHVr24N-68" style="edgeStyle=orthogonalEdgeStyle;rounded=0;orthogonalLoop=1;jettySize=auto;html=1;fillColor=#fa6800;strokeColor=#C73500;shape=link;exitX=-0.037;exitY=0.184;exitDx=0;exitDy=0;exitPerimeter=0;entryX=1;entryY=0.5;entryDx=0;entryDy=0;entryPerimeter=0;" edge="1" parent="1" source="PLKDB188a2l5lJHVr24N-44" target="PLKDB188a2l5lJHVr24N-40">
          <mxGeometry relative="1" as="geometry">
            <Array as="points">
              <mxPoint x="740.5" y="1100" />
            </Array>
            <mxPoint x="807" y="932" as="sourcePoint" />
            <mxPoint x="430.5" y="1110" as="targetPoint" />
          </mxGeometry>
        </mxCell>
        <mxCell id="PLKDB188a2l5lJHVr24N-70" value="FW to OOB SW to permit CTRL-EXT-MGMT =&amp;gt; IPMI flows" style="text;html=1;align=center;verticalAlign=middle;resizable=0;points=[];autosize=1;" vertex="1" parent="1">
          <mxGeometry x="455.5" y="1115" width="330" height="20" as="geometry" />
        </mxCell>
        <mxCell id="PLKDB188a2l5lJHVr24N-81" value="" style="shape=mxgraph.cisco.switches.layer_3_switch;html=1;pointerEvents=1;dashed=0;fillColor=#036897;strokeColor=#ffffff;strokeWidth=2;verticalLabelPosition=bottom;verticalAlign=top;align=center;outlineConnect=0;" vertex="1" parent="1">
          <mxGeometry x="228.5" y="310" width="64" height="64" as="geometry" />
        </mxCell>
        <mxCell id="PLKDB188a2l5lJHVr24N-83" value="" style="shape=mxgraph.cisco.switches.layer_3_switch;html=1;pointerEvents=1;dashed=0;fillColor=#036897;strokeColor=#ffffff;strokeWidth=2;verticalLabelPosition=bottom;verticalAlign=top;align=center;outlineConnect=0;" vertex="1" parent="1">
          <mxGeometry x="468.5" y="310" width="64" height="64" as="geometry" />
        </mxCell>
        <mxCell id="PLKDB188a2l5lJHVr24N-84" style="edgeStyle=none;shape=link;rounded=0;orthogonalLoop=1;jettySize=auto;html=1;exitX=0.5;exitY=0;exitDx=0;exitDy=0;exitPerimeter=0;entryX=0;entryY=1;entryDx=0;entryDy=0;entryPerimeter=0;fontSize=10;fontColor=#E6E6E6;strokeColor=#B3B3B3;" edge="1" parent="1" source="PLKDB188a2l5lJHVr24N-86" target="PLKDB188a2l5lJHVr24N-111">
          <mxGeometry relative="1" as="geometry" />
        </mxCell>
        <mxCell id="PLKDB188a2l5lJHVr24N-85" style="edgeStyle=none;shape=link;rounded=0;orthogonalLoop=1;jettySize=auto;html=1;exitX=1;exitY=0;exitDx=0;exitDy=0;exitPerimeter=0;entryX=0;entryY=1;entryDx=0;entryDy=0;entryPerimeter=0;strokeColor=#001DBC;fontSize=10;fontColor=#E6E6E6;fillColor=#0050ef;" edge="1" parent="1" source="PLKDB188a2l5lJHVr24N-86" target="PLKDB188a2l5lJHVr24N-110">
          <mxGeometry relative="1" as="geometry" />
        </mxCell>
        <mxCell id="PLKDB188a2l5lJHVr24N-86" value="" style="shape=mxgraph.cisco.security.ios_firewall;html=1;pointerEvents=1;dashed=0;fillColor=#036897;strokeColor=#ffffff;strokeWidth=2;verticalLabelPosition=bottom;verticalAlign=top;align=center;outlineConnect=0;" vertex="1" parent="1">
          <mxGeometry x="239" width="40" height="66" as="geometry" />
        </mxCell>
        <mxCell id="PLKDB188a2l5lJHVr24N-87" style="edgeStyle=none;shape=link;rounded=0;orthogonalLoop=1;jettySize=auto;html=1;exitX=0.5;exitY=0;exitDx=0;exitDy=0;exitPerimeter=0;strokeColor=#001DBC;fontSize=10;fontColor=#E6E6E6;fillColor=#0050ef;entryX=0.5;entryY=1;entryDx=0;entryDy=0;entryPerimeter=0;" edge="1" parent="1" source="PLKDB188a2l5lJHVr24N-88" target="PLKDB188a2l5lJHVr24N-110">
          <mxGeometry relative="1" as="geometry">
            <mxPoint x="598.5" y="-90" as="targetPoint" />
          </mxGeometry>
        </mxCell>
        <mxCell id="PLKDB188a2l5lJHVr24N-88" value="" style="shape=mxgraph.cisco.security.ios_firewall;html=1;pointerEvents=1;dashed=0;fillColor=#036897;strokeColor=#ffffff;strokeWidth=2;verticalLabelPosition=bottom;verticalAlign=top;align=center;outlineConnect=0;" vertex="1" parent="1">
          <mxGeometry x="482" width="40" height="66" as="geometry" />
        </mxCell>
        <mxCell id="PLKDB188a2l5lJHVr24N-89" value="OJO-Core-FW Active/Passive &lt;br&gt;" style="text;html=1;align=center;verticalAlign=middle;resizable=0;points=[];autosize=1;" vertex="1" parent="1">
          <mxGeometry x="292" y="23" width="170" height="20" as="geometry" />
        </mxCell>
        <mxCell id="PLKDB188a2l5lJHVr24N-90" value="VPLS PE router1" style="text;html=1;align=center;verticalAlign=middle;resizable=0;points=[];autosize=1;" vertex="1" parent="1">
          <mxGeometry x="532.5" y="270" width="110" height="20" as="geometry" />
        </mxCell>
        <mxCell id="PLKDB188a2l5lJHVr24N-91" value="Nokia SRs" style="text;html=1;align=center;verticalAlign=middle;resizable=0;points=[];autosize=1;" vertex="1" parent="1">
          <mxGeometry x="347.5" y="260" width="70" height="20" as="geometry" />
        </mxCell>
        <mxCell id="PLKDB188a2l5lJHVr24N-92" value="" style="html=1;shadow=0;dashed=0;align=center;verticalAlign=middle;shape=mxgraph.arrows2.twoWayArrow;dy=0.65;dx=22;rotation=90;fillColor=#d5e8d4;strokeColor=#82b366;gradientColor=#97d077;" vertex="1" parent="1">
          <mxGeometry x="223.5" y="140" width="164" height="30" as="geometry" />
        </mxCell>
        <mxCell id="PLKDB188a2l5lJHVr24N-93" value="" style="html=1;shadow=0;dashed=0;align=center;verticalAlign=middle;shape=mxgraph.arrows2.twoWayArrow;dy=0.65;dx=22;rotation=90;fontStyle=1;fillColor=#a0522d;strokeColor=#6D1F00;fontColor=#ffffff;" vertex="1" parent="1">
          <mxGeometry x="294.5" y="140" width="164" height="30" as="geometry" />
        </mxCell>
        <mxCell id="PLKDB188a2l5lJHVr24N-94" value="" style="html=1;shadow=0;dashed=0;align=center;verticalAlign=middle;shape=mxgraph.arrows2.twoWayArrow;dy=0.65;dx=22;rotation=90;fillColor=#008a00;strokeColor=#005700;fontColor=#ffffff;" vertex="1" parent="1">
          <mxGeometry x="362.5" y="140" width="164" height="30" as="geometry" />
        </mxCell>
        <mxCell id="PLKDB188a2l5lJHVr24N-95" value="VPLS PW EXT_MGMT_OUT_VLAN" style="text;html=1;align=center;verticalAlign=middle;resizable=0;points=[];autosize=1;fontSize=10;rotation=-90;" vertex="1" parent="1">
          <mxGeometry x="375.5" y="140" width="180" height="20" as="geometry" />
        </mxCell>
        <mxCell id="PLKDB188a2l5lJHVr24N-96" value="VPLS PW EXT_PUB_API_VLAN" style="text;html=1;align=center;verticalAlign=middle;resizable=0;points=[];autosize=1;fontSize=10;rotation=-90;" vertex="1" parent="1">
          <mxGeometry x="316" y="145" width="160" height="20" as="geometry" />
        </mxCell>
        <mxCell id="PLKDB188a2l5lJHVr24N-97" value="VPLS PW INFRA_OUT_VLAN" style="text;html=1;align=center;verticalAlign=middle;resizable=0;points=[];autosize=1;fontSize=10;rotation=-90;" vertex="1" parent="1">
          <mxGeometry x="249" y="150" width="150" height="20" as="geometry" />
        </mxCell>
        <mxCell id="PLKDB188a2l5lJHVr24N-98" style="shape=link;rounded=0;orthogonalLoop=1;jettySize=auto;html=1;exitX=0.98;exitY=0.46;exitDx=0;exitDy=0;exitPerimeter=0;" edge="1" parent="1" source="PLKDB188a2l5lJHVr24N-99" target="PLKDB188a2l5lJHVr24N-111">
          <mxGeometry relative="1" as="geometry" />
        </mxCell>
        <mxCell id="PLKDB188a2l5lJHVr24N-99" value="" style="shape=mxgraph.cisco.security.gatekeeper;html=1;pointerEvents=1;dashed=0;fillColor=#036897;strokeColor=#ffffff;strokeWidth=2;verticalLabelPosition=bottom;verticalAlign=top;align=center;outlineConnect=0;fontSize=10;fontColor=#E6E6E6;" vertex="1" parent="1">
          <mxGeometry x="8.5" y="-140" width="125" height="60" as="geometry" />
        </mxCell>
        <mxCell id="PLKDB188a2l5lJHVr24N-100" value="&lt;font color=&quot;#000000&quot; style=&quot;font-size: 12px&quot;&gt;GIN Access Layer&lt;/font&gt;" style="text;html=1;align=center;verticalAlign=middle;resizable=0;points=[];autosize=1;fontSize=10;fontColor=#E6E6E6;" vertex="1" parent="1">
          <mxGeometry x="17.5" width="110" height="20" as="geometry" />
        </mxCell>
        <mxCell id="PLKDB188a2l5lJHVr24N-101" value="&lt;font color=&quot;#000000&quot;&gt;Internet&lt;/font&gt;" style="html=1;outlineConnect=0;fillColor=#CCCCCC;strokeColor=#6881B3;gradientColor=none;gradientDirection=north;strokeWidth=2;shape=mxgraph.networks.cloud;fontColor=#ffffff;" vertex="1" parent="1">
          <mxGeometry x="761" y="52.5" width="90" height="50" as="geometry" />
        </mxCell>
        <mxCell id="PLKDB188a2l5lJHVr24N-102" style="edgeStyle=none;shape=link;rounded=0;orthogonalLoop=1;jettySize=auto;html=1;entryX=0.75;entryY=0.91;entryDx=0;entryDy=0;entryPerimeter=0;fontColor=#E6E6E6;exitX=0.5;exitY=0;exitDx=0;exitDy=0;exitPerimeter=0;strokeColor=#B3B3B3;" edge="1" parent="1" source="PLKDB188a2l5lJHVr24N-88" target="PLKDB188a2l5lJHVr24N-111">
          <mxGeometry relative="1" as="geometry">
            <mxPoint x="646.7515979381444" y="77.5" as="sourcePoint" />
            <mxPoint x="438.24" y="-90" as="targetPoint" />
          </mxGeometry>
        </mxCell>
        <mxCell id="PLKDB188a2l5lJHVr24N-103" value="" style="shape=mxgraph.cisco.security.guard;html=1;pointerEvents=1;dashed=0;fillColor=#036897;strokeColor=#ffffff;strokeWidth=2;verticalLabelPosition=bottom;verticalAlign=top;align=center;outlineConnect=0;fontSize=10;fontColor=#E6E6E6;rotation=90;" vertex="1" parent="1">
          <mxGeometry x="623.5" y="85" width="68" height="35" as="geometry" />
        </mxCell>
        <mxCell id="PLKDB188a2l5lJHVr24N-104" value="" style="html=1;shadow=0;dashed=0;align=center;verticalAlign=middle;shape=mxgraph.arrows2.twoWayArrow;dy=0.65;dx=22;rotation=-160;fillColor=#008a00;strokeColor=#005700;fontColor=#ffffff;" vertex="1" parent="1">
          <mxGeometry x="516" y="75" width="121.5" height="20" as="geometry" />
        </mxCell>
        <mxCell id="PLKDB188a2l5lJHVr24N-105" style="edgeStyle=none;shape=link;rounded=0;orthogonalLoop=1;jettySize=auto;html=1;entryX=1;entryY=0.5;entryDx=0;entryDy=0;entryPerimeter=0;fontColor=#E6E6E6;exitX=0;exitY=0.5;exitDx=0;exitDy=0;exitPerimeter=0;strokeColor=#B3B3B3;" edge="1" parent="1" source="PLKDB188a2l5lJHVr24N-103" target="PLKDB188a2l5lJHVr24N-88">
          <mxGeometry relative="1" as="geometry">
            <mxPoint x="710.5" y="118" as="sourcePoint" />
            <mxPoint x="578.5" y="18" as="targetPoint" />
          </mxGeometry>
        </mxCell>
        <mxCell id="PLKDB188a2l5lJHVr24N-106" value="Bastion" style="text;html=1;align=center;verticalAlign=middle;resizable=0;points=[];autosize=1;" vertex="1" parent="1">
          <mxGeometry x="669.5" y="95" width="60" height="20" as="geometry" />
        </mxCell>
        <mxCell id="PLKDB188a2l5lJHVr24N-107" value="&lt;font color=&quot;#000000&quot;&gt;IPv4@internal side (to&amp;nbsp;&lt;/font&gt;&lt;span style=&quot;color: rgb(0 , 0 , 0)&quot;&gt;EXT-MGMT-OUT)&lt;/span&gt;" style="text;html=1;align=center;verticalAlign=middle;resizable=0;points=[];autosize=1;fontSize=10;fontColor=#E6E6E6;rotation=25;" vertex="1" parent="1">
          <mxGeometry x="505.5" y="110" width="200" height="20" as="geometry" />
        </mxCell>
        <mxCell id="PLKDB188a2l5lJHVr24N-108" value="&lt;font color=&quot;#000000&quot;&gt;IPv4@ external side (to&amp;nbsp;&lt;/font&gt;&lt;span style=&quot;color: rgb(0 , 0 , 0)&quot;&gt;GIN)&lt;/span&gt;" style="text;html=1;align=center;verticalAlign=middle;resizable=0;points=[];autosize=1;fontSize=10;fontColor=#E6E6E6;rotation=15;" vertex="1" parent="1">
          <mxGeometry x="587.5" y="48" width="140" height="20" as="geometry" />
        </mxCell>
        <mxCell id="PLKDB188a2l5lJHVr24N-109" style="rounded=0;orthogonalLoop=1;jettySize=auto;html=1;shape=link;fillColor=#0050ef;strokeColor=#001DBC;" edge="1" parent="1" source="PLKDB188a2l5lJHVr24N-110">
          <mxGeometry relative="1" as="geometry">
            <mxPoint x="759.5" y="-82.50000000000011" as="targetPoint" />
          </mxGeometry>
        </mxCell>
        <mxCell id="PLKDB188a2l5lJHVr24N-110" value="" style="fontColor=#0066CC;verticalAlign=top;verticalLabelPosition=bottom;labelPosition=center;align=center;html=1;outlineConnect=0;fillColor=#CCCCCC;strokeColor=#6881B3;gradientColor=none;gradientDirection=north;strokeWidth=2;shape=mxgraph.networks.firewall;" vertex="1" parent="1">
          <mxGeometry x="570.5" y="-110" width="54" height="55" as="geometry" />
        </mxCell>
        <mxCell id="PLKDB188a2l5lJHVr24N-111" value="" style="shape=mxgraph.cisco.security.firewall;html=1;pointerEvents=1;dashed=0;fillColor=#036897;strokeColor=#ffffff;strokeWidth=2;verticalLabelPosition=bottom;verticalAlign=top;align=center;outlineConnect=0;" vertex="1" parent="1">
          <mxGeometry x="179.5" y="-121.25" width="29" height="67" as="geometry" />
        </mxCell>
        <mxCell id="PLKDB188a2l5lJHVr24N-112" value="" style="aspect=fixed;html=1;points=[];align=center;image;fontSize=12;image=img/lib/mscae/Application_Gateway.svg;" vertex="1" parent="1">
          <mxGeometry x="189.5" y="-118.75" width="32" height="32" as="geometry" />
        </mxCell>
        <mxCell id="PLKDB188a2l5lJHVr24N-113" value="" style="aspect=fixed;html=1;points=[];align=center;image;fontSize=12;image=img/lib/mscae/Network_watcher.svg;" vertex="1" parent="1">
          <mxGeometry x="570.5" y="-110" width="30" height="30" as="geometry" />
        </mxCell>
        <mxCell id="PLKDB188a2l5lJHVr24N-114" value="IPv4@GIN" style="text;html=1;align=center;verticalAlign=middle;resizable=0;points=[];autosize=1;rotation=30;" vertex="1" parent="1">
          <mxGeometry x="109.5" y="-92.5" width="70" height="20" as="geometry" />
        </mxCell>
        <mxCell id="PLKDB188a2l5lJHVr24N-115" value="IPv4@Public Internet" style="text;html=1;align=center;verticalAlign=middle;resizable=0;points=[];autosize=1;" vertex="1" parent="1">
          <mxGeometry x="618.5" y="-81" width="130" height="20" as="geometry" />
        </mxCell>
        <mxCell id="PLKDB188a2l5lJHVr24N-116" value="GATEWAY-FW" style="text;html=1;align=center;verticalAlign=middle;resizable=0;points=[];autosize=1;" vertex="1" parent="1">
          <mxGeometry x="560.5" y="-130" width="90" height="20" as="geometry" />
        </mxCell>
        <mxCell id="PLKDB188a2l5lJHVr24N-117" value="GIN-FW (Reverse-Proxy)" style="text;html=1;align=center;verticalAlign=middle;resizable=0;points=[];autosize=1;" vertex="1" parent="1">
          <mxGeometry x="171.5" y="-135.75" width="150" height="20" as="geometry" />
        </mxCell>
        <mxCell id="PLKDB188a2l5lJHVr24N-40" value="" style="shape=mxgraph.cisco.switches.layer_2_remote_switch;html=1;pointerEvents=1;dashed=0;fillColor=#60a917;strokeColor=#2D7600;strokeWidth=2;verticalLabelPosition=bottom;verticalAlign=top;align=center;outlineConnect=0;fontColor=#ffffff;" vertex="1" parent="1">
          <mxGeometry x="343.5" y="1075" width="71" height="30" as="geometry" />
        </mxCell>
        <mxCell id="PLKDB188a2l5lJHVr24N-123" style="shape=link;rounded=0;orthogonalLoop=1;jettySize=auto;html=1;exitX=0.5;exitY=0;exitDx=0;exitDy=0;exitPerimeter=0;entryX=0.5;entryY=0.98;entryDx=0;entryDy=0;entryPerimeter=0;strokeColor=#0000FF;" edge="1" parent="1" source="PLKDB188a2l5lJHVr24N-17" target="PLKDB188a2l5lJHVr24N-77">
          <mxGeometry relative="1" as="geometry">
            <mxPoint x="502" y="940" as="sourcePoint" />
            <mxPoint x="500.5" y="579.4000000000001" as="targetPoint" />
          </mxGeometry>
        </mxCell>
        <mxCell id="PLKDB188a2l5lJHVr24N-124" style="rounded=0;orthogonalLoop=1;jettySize=auto;html=1;shape=link;strokeColor=#0000FF;entryX=0;entryY=0.98;entryDx=0;entryDy=0;entryPerimeter=0;" edge="1" parent="1" source="PLKDB188a2l5lJHVr24N-13" target="PLKDB188a2l5lJHVr24N-58">
          <mxGeometry relative="1" as="geometry">
            <mxPoint x="262.076354679803" y="940" as="sourcePoint" />
            <mxPoint x="262.96305418719203" y="580" as="targetPoint" />
          </mxGeometry>
        </mxCell>
        <mxCell id="PLKDB188a2l5lJHVr24N-61" value="" style="whiteSpace=wrap;html=1;fillColor=#ffff88;strokeColor=#36393d;" vertex="1" parent="1">
          <mxGeometry x="253" y="580" width="20" height="10" as="geometry" />
        </mxCell>
        <mxCell id="PLKDB188a2l5lJHVr24N-62" value="" style="whiteSpace=wrap;html=1;fillColor=#ffff88;strokeColor=#36393d;" vertex="1" parent="1">
          <mxGeometry x="293" y="580" width="20" height="10" as="geometry" />
        </mxCell>
        <mxCell id="PLKDB188a2l5lJHVr24N-128" style="rounded=0;orthogonalLoop=1;jettySize=auto;html=1;exitX=0.17;exitY=0.07;exitDx=0;exitDy=0;exitPerimeter=0;shape=link;strokeColor=#0000FF;entryX=0.5;entryY=0.98;entryDx=0;entryDy=0;entryPerimeter=0;" edge="1" parent="1" source="PLKDB188a2l5lJHVr24N-17" target="PLKDB188a2l5lJHVr24N-62">
          <mxGeometry relative="1" as="geometry">
            <mxPoint x="487.80999999999995" y="944.3400000000001" as="sourcePoint" />
            <mxPoint x="303" y="579.4000000000001" as="targetPoint" />
          </mxGeometry>
        </mxCell>
        <mxCell id="PLKDB188a2l5lJHVr24N-36" value="&lt;span style=&quot;font-family: &amp;#34;calibri&amp;#34; , sans-serif ; text-transform: uppercase&quot;&gt;&lt;font style=&quot;font-size: 10px&quot; color=&quot;#0000ff&quot;&gt;CTRL_PXE_VLAN&lt;br&gt;ctrl_mgmt_vlan, ctrl_pub_api_vlan,&lt;br&gt;ctrl_sto_acc_vlan, CTRL_ext_mgmt_vlan&lt;br&gt;CTRL_INFRA_OUT_VLAN&lt;br&gt;&lt;/font&gt;&lt;/span&gt;" style="whiteSpace=wrap;html=1;strokeColor=#0000FF;" vertex="1" parent="1">
          <mxGeometry x="163" y="862" width="115" height="90" as="geometry" />
        </mxCell>
        <mxCell id="PLKDB188a2l5lJHVr24N-131" style="edgeStyle=none;rounded=0;orthogonalLoop=1;jettySize=auto;html=1;shape=link;" edge="1" parent="1" source="PLKDB188a2l5lJHVr24N-133" target="PLKDB188a2l5lJHVr24N-76">
          <mxGeometry relative="1" as="geometry" />
        </mxCell>
        <mxCell id="PLKDB188a2l5lJHVr24N-132" style="edgeStyle=none;rounded=0;orthogonalLoop=1;jettySize=auto;html=1;exitX=0;exitY=0.5;exitDx=0;exitDy=0;exitPerimeter=0;entryX=0.87;entryY=0.74;entryDx=0;entryDy=0;entryPerimeter=0;shape=link;" edge="1" parent="1" source="PLKDB188a2l5lJHVr24N-135" target="PLKDB188a2l5lJHVr24N-58">
          <mxGeometry relative="1" as="geometry" />
        </mxCell>
        <mxCell id="PLKDB188a2l5lJHVr24N-130" value="" style="shape=mxgraph.cisco.servers.server_with_router;html=1;pointerEvents=1;dashed=0;fillColor=#036897;strokeColor=#ffffff;strokeWidth=2;verticalLabelPosition=bottom;verticalAlign=top;align=center;outlineConnect=0;" vertex="1" parent="1">
          <mxGeometry x="741" y="640" width="38" height="64" as="geometry" />
        </mxCell>
        <mxCell id="PLKDB188a2l5lJHVr24N-76" value="" style="shape=mxgraph.cisco.switches.workgroup_switch;html=1;pointerEvents=1;dashed=0;fillColor=#036897;strokeColor=#ffffff;strokeWidth=2;verticalLabelPosition=bottom;verticalAlign=top;align=center;outlineConnect=0;" vertex="1" parent="1">
          <mxGeometry x="460.5" y="550" width="80" height="30" as="geometry" />
        </mxCell>
        <mxCell id="PLKDB188a2l5lJHVr24N-133" value="" style="whiteSpace=wrap;html=1;fillColor=#ffff88;strokeColor=#36393d;" vertex="1" parent="1">
          <mxGeometry x="519.5" y="575" width="20" height="10" as="geometry" />
        </mxCell>
        <mxCell id="PLKDB188a2l5lJHVr24N-134" style="edgeStyle=none;rounded=0;orthogonalLoop=1;jettySize=auto;html=1;shape=link;" edge="1" parent="1" source="PLKDB188a2l5lJHVr24N-130" target="PLKDB188a2l5lJHVr24N-133">
          <mxGeometry relative="1" as="geometry">
            <mxPoint x="720" y="672.6792452830186" as="sourcePoint" />
            <mxPoint x="531.0769230769231" y="580" as="targetPoint" />
          </mxGeometry>
        </mxCell>
        <mxCell id="PLKDB188a2l5lJHVr24N-65" value="" style="whiteSpace=wrap;html=1;fillColor=#ffff88;strokeColor=#36393d;" vertex="1" parent="1">
          <mxGeometry x="532.5" y="560" width="20" height="10" as="geometry" />
        </mxCell>
        <mxCell id="PLKDB188a2l5lJHVr24N-78" value="" style="whiteSpace=wrap;html=1;fillColor=#ffff88;strokeColor=#36393d;" vertex="1" parent="1">
          <mxGeometry x="455" y="580" width="20" height="10" as="geometry" />
        </mxCell>
        <mxCell id="PLKDB188a2l5lJHVr24N-77" value="" style="whiteSpace=wrap;html=1;fillColor=#ffff88;strokeColor=#36393d;" vertex="1" parent="1">
          <mxGeometry x="492" y="580" width="20" height="10" as="geometry" />
        </mxCell>
        <mxCell id="PLKDB188a2l5lJHVr24N-136" style="edgeStyle=none;rounded=0;orthogonalLoop=1;jettySize=auto;html=1;exitX=0;exitY=0.5;exitDx=0;exitDy=0;exitPerimeter=0;entryX=0.87;entryY=0.74;entryDx=0;entryDy=0;entryPerimeter=0;shape=link;" edge="1" parent="1" source="PLKDB188a2l5lJHVr24N-130" target="PLKDB188a2l5lJHVr24N-135">
          <mxGeometry relative="1" as="geometry">
            <mxPoint x="720" y="682" as="sourcePoint" />
            <mxPoint x="332.5999999999999" y="572.1999999999998" as="targetPoint" />
          </mxGeometry>
        </mxCell>
        <mxCell id="PLKDB188a2l5lJHVr24N-135" value="" style="whiteSpace=wrap;html=1;fillColor=#ffff88;strokeColor=#36393d;" vertex="1" parent="1">
          <mxGeometry x="327.5" y="565" width="20" height="10" as="geometry" />
        </mxCell>
      </root>
    </mxGraphModel>
  </diagram>
</mxfile>
